<svg width="43" height="42" viewBox="0 0 43 42" fill="none" xmlns="http://www.w3.org/2000/svg">
<g filter="url(#filter0_i)">
<path d="M25.757 17.514C25.671 17.4216 25.585 17.3292 25.4904 17.2368C21.672 13.5072 17.8536 9.77761 14.0352 6.04801C12.9258 4.97281 12.5732 3.70441 13.0978 2.25961C13.9148 5.89353e-06 16.8732 -0.730794 18.7222 0.848406C18.834 0.949206 18.9458 1.05001 19.0576 1.15921C24.9314 6.88801 30.7966 12.6168 36.6704 18.354C38.0722 19.7232 38.2012 21.2856 37.5304 22.638C37.2466 23.2092 36.7822 23.6208 36.292 24.0156C35.5954 24.5364 34.8042 24.6624 33.9614 24.5868C32.9466 24.444 32.1726 23.9148 31.4588 23.2008C29.67 21.4116 27.8468 19.6644 26.0408 17.9004C25.929 17.7744 25.7828 17.6904 25.757 17.514Z" fill="#B4E462"/>
<path d="M33.8926 24.486C34.744 24.5784 35.5352 24.3684 36.292 24.0072C36.2146 24.0912 36.1372 24.1836 36.0598 24.2592C30.401 29.778 24.7422 35.2968 19.1006 40.8324C18.2148 41.6976 17.1914 42.0924 15.9358 41.9748C14.4222 41.832 13.029 40.4544 12.8914 38.976C12.7796 37.7832 13.1752 36.792 14.0438 35.952C17.845 32.256 21.6376 28.5432 25.4388 24.8388C25.5334 24.7464 25.6624 24.6792 25.7828 24.6036C25.757 24.5616 25.7398 24.5196 25.714 24.486C25.585 24.486 25.4474 24.486 25.3184 24.486C19.9864 24.486 14.6544 24.486 9.32241 24.486C9.15901 24.486 8.99561 24.5196 8.83221 24.4524C9.01281 24.2676 9.24501 24.3264 9.46001 24.3264C13.1064 24.3264 16.7528 24.3264 20.4078 24.3264C21.801 24.3264 23.1942 24.2928 24.5788 24.3348C27.3652 24.4272 30.143 24.3768 32.9208 24.402C33.2476 24.3936 33.5658 24.4608 33.8926 24.486Z" fill="#B4E462"/>
<path d="M33.8926 24.4857C31.2954 24.4857 28.6982 24.5445 26.1096 24.4773C23.0824 24.4017 20.0552 24.4521 17.0366 24.4353C14.4308 24.4185 11.825 24.4353 9.21921 24.4353C9.09021 24.4353 8.96121 24.4437 8.83221 24.4437C6.98321 24.4101 5.49541 22.9401 5.41801 21.0669C5.34061 19.3449 6.78541 17.7321 8.54841 17.5641C8.84081 17.5389 9.13321 17.5221 9.42561 17.5221C14.706 17.5221 19.995 17.5221 25.2754 17.5221C25.4388 17.5221 25.6022 17.5137 25.7656 17.5053C26.9524 18.6561 28.1306 19.7985 29.3174 20.9493C30.0054 21.6129 30.7106 22.2681 31.3642 22.9653C32.0608 23.7213 32.8348 24.3177 33.8926 24.4857Z" fill="#B4E462"/>
</g>
<defs>
<filter id="filter0_i" x="0" y="0" width="43" height="46" filterUnits="userSpaceOnUse" color-interpolation-filters="sRGB">
<feFlood flood-opacity="0" result="BackgroundImageFix"/>
<feBlend mode="normal" in="SourceGraphic" in2="BackgroundImageFix" result="shape"/>
<feColorMatrix in="SourceAlpha" type="matrix" values="0 0 0 0 0 0 0 0 0 0 0 0 0 0 0 0 0 0 127 0" result="hardAlpha"/>
<feOffset dy="4"/>
<feGaussianBlur stdDeviation="2"/>
<feComposite in2="hardAlpha" operator="arithmetic" k2="-1" k3="1"/>
<feColorMatrix type="matrix" values="0 0 0 0 0 0 0 0 0 0 0 0 0 0 0 0 0 0 0.25 0"/>
<feBlend mode="normal" in2="shape" result="effect1_innerShadow"/>
</filter>
</defs>
</svg>
